<svg xmlns="http://www.w3.org/2000/svg" viewBox="0 0 551.034 551.034"><linearGradient id="a" gradientUnits="userSpaceOnUse" x1="275.5" y1="4.6" x2="275.5" y2="549.7" gradientTransform="matrix(1 0 0 -1 0 554)"><stop offset="0" stop-color="#E09B3D"/><stop offset=".3" stop-color="#C74C4D"/><stop offset=".6" stop-color="#C21975"/><stop offset="1" stop-color="#7024C4"/></linearGradient><path d="M387 0H164C73.6 0 0 73.6 0 164.2V387c0 90.4 73.6 164 164.2 164H387c90.4 0 164-73.6 164-164V164C551 73.6 477.4 0 387 0zm108.6 387c0 60-48.7 108.6-108.7 108.6H164c-60 0-108.8-48.7-108.8-108.7V164c0-60 48.7-108.8 108.8-108.8H387c60 0 108.6 48.7 108.6 108.8V387z" fill="url(#a)"/><linearGradient id="b" gradientUnits="userSpaceOnUse" x1="275.5" y1="4.6" x2="275.5" y2="549.7" gradientTransform="matrix(1 0 0 -1 0 554)"><stop offset="0" stop-color="#E09B3D"/><stop offset=".3" stop-color="#C74C4D"/><stop offset=".6" stop-color="#C21975"/><stop offset="1" stop-color="#7024C4"/></linearGradient><path d="M275.5 133C197 133 133 197 133 275.5S197 418 275.5 418 418 354 418 275.5 354 133 275.5 133zm0 229.6c-48 0-87-39-87-87s39-87.2 87-87.2 87 39 87 87c0 48.2-39 87.2-87 87.2z" fill="url(#b)"/><linearGradient id="c" gradientUnits="userSpaceOnUse" x1="418.3" y1="4.6" x2="418.3" y2="549.7" gradientTransform="matrix(1 0 0 -1 0 554)"><stop offset="0" stop-color="#E09B3D"/><stop offset=".3" stop-color="#C74C4D"/><stop offset=".6" stop-color="#C21975"/><stop offset="1" stop-color="#7024C4"/></linearGradient><circle cx="418.3" cy="134.1" r="34.1" fill="url(#c)"/></svg>