<?xml version="1.0" standalone="no"?>
<!DOCTYPE svg PUBLIC "-//W3C//DTD SVG 20010904//EN"
 "http://www.w3.org/TR/2001/REC-SVG-20010904/DTD/svg10.dtd">
<svg version="1.0" xmlns="http://www.w3.org/2000/svg"
 width="260.000000pt" height="260.000000pt" viewBox="0 0 260.000000 260.000000"
 preserveAspectRatio="xMidYMid meet">
<g transform="translate(0.000000,260.000000) scale(0.100000,-0.100000)"
fill="#000000" stroke="none">
<path d="M1150 2579 c-176 -20 -375 -90 -526 -185 -308 -193 -509 -481 -586
-837 -28 -133 -30 -380 -4 -502 114 -530 496 -910 1026 -1022 117 -24 363 -24
480 0 195 41 376 121 524 231 534 395 681 1131 339 1699 -261 432 -752 673
-1253 616z m569 -705 c84 -35 151 -146 138 -228 -17 -107 -50 -159 -132 -212
-73 -46 -260 -140 -315 -157 -146 -47 -227 -15 -235 94 -3 45 2 65 28 119 58
120 159 270 218 324 88 82 194 103 298 60z"/>
</g>
</svg>
