<svg height='451' width='451'  fill="#FFFFFF" xmlns:dc="http://purl.org/dc/elements/1.1/" xmlns:cc="http://creativecommons.org/ns#" xmlns:rdf="http://www.w3.org/1999/02/22-rdf-syntax-ns#" xmlns:svg="http://www.w3.org/2000/svg" xmlns="http://www.w3.org/2000/svg" xmlns:sodipodi="http://sodipodi.sourceforge.net/DTD/sodipodi-0.dtd" xmlns:inkscape="http://www.inkscape.org/namespaces/inkscape" version="1.1" x="0px" y="0px" viewBox="0 0 100 100"><g transform="translate(0,-952.36218)"><path d="m 17,956.36215 c -1.859,1.4e-4 -2.9616,1.58663 -3,3 l 0,86.00005 c 2e-4,1.5707 1.4292,2.9998 3,3 l 52,0 c 0.7905,-0.01 1.5733,-0.3401 2.125,-0.9063 l 14,-14 c 0.5476,-0.5494 0.8688,-1.318 0.875,-2.0937 l 0,-72.00005 c -2e-4,-1.57075 -1.4292,-2.99984 -3,-3 z m 3,6 60,0 0,66.00005 -11,0 c -1.6831,0 -3.0218,1.5325 -3,3 l 0,11 -46,0 z m 30,4 c -3.3137,0 -6,2.6863 -6,6 0,3.3137 2.6863,6 6,6 3.3137,0 6,-2.6863 6,-6 0,-3.3137 -2.6863,-6 -6,-6 z m 0,14 c -6,0 -13,2 -13,10 l 26,0 c 0,-8 -7,-10 -13,-10 z m -21,16 c -1.6568,0 -3,1.3432 -3,3 0,1.65695 1.3432,3.00005 3,3.00005 l 42,0 c 1.6569,0 3,-1.3431 3,-3.00005 0,-1.6568 -1.3431,-3 -3,-3 z m 0,12.00005 c -1.6568,0 -3,1.3432 -3,3 0,1.6569 1.3432,3 3,3 l 42,0 c 1.6569,0 3,-1.3431 3,-3 0,-1.6568 -1.3431,-3 -3,-3 z m 0,12 c -1.6568,0 -3,1.3431 -3,3 0,1.6568 1.3432,3 3,3 l 42,0 c 1.6569,0 3,-1.3432 3,-3 0,-1.6569 -1.3431,-3 -3,-3 z m 43,14 3.75,0 -3.75,3.75 z" style="text-indent:0;text-transform:none;direction:ltr;block-progression:tb;baseline-shift:baseline;color:#000000;enable-background:accumulate;" fill="#FFFFFF" fill-opacity="1" stroke="none" marker="none" visibility="visible" display="inline" overflow="visible"></path></g></svg>