<svg height="451" width="451" fill="#FFF" xmlns="http://www.w3.org/2000/svg" viewBox="0 0 100 100"><path d="M17 4c-1.859 0-2.962 1.587-3 3v86c0 1.57 1.43 3 3 3h52c.79-.01 1.573-.34 2.125-.906l14-14c.548-.55.869-1.318.875-2.094V7c0-1.57-1.43-3-3-3zm3 6h60v66H69c-1.683 0-3.022 1.533-3 3v11H20zm30 4a6 6 0 1 0 0 12 6 6 0 0 0 0-12zm0 14c-6 0-13 2-13 10h26c0-8-7-10-13-10zM29 44a3 3 0 0 0 0 6h42a3 3 0 1 0 0-6zm0 12a3 3 0 0 0 0 6h42a3 3 0 1 0 0-6zm0 12a3 3 0 0 0 0 6h42a3 3 0 0 0 0-6zm43 14h3.75L72 85.75z" color="#000"/></svg>
