<svg xmlns="http://www.w3.org/2000/svg"><path fill="#000" d="M22.052 25.345c-2.206 1.446-5.021 2.208-8.309 2.135h-.004c-.199.004-.39-.004-.585-.005l-.773 3.582c-.178 1.202-.69 1.263-1.139.136L8.336 26.73a12.358 12.358 0 0 1-2.835-1.337c-3.573-2.307-5.585-6.394-5.5-11.648C-.136 5.261 5.191-.18 13.738.006h.004c8.549-.189 13.876 5.254 13.739 13.739.085 5.219-1.899 9.288-5.43 11.601zM11.504 10.47a1.65 1.65 0 0 0-2.299.001c-.311.311-.475.708-.475 1.149s.164.839.475 1.149c.311.311.708.475 1.149.475s.839-.164 1.149-.475.475-.708.475-1.149c0-.441-.164-.838-.475-1.15zm0 6.653a1.652 1.652 0 0 0-2.299 0c-.311.311-.475.708-.475 1.15s.164.838.475 1.149c.315.315.702.475 1.149.475.441 0 .839-.164 1.149-.475s.475-.708.475-1.149a1.59 1.59 0 0 0-.475-1.15zm8.908-10.586c-.507-.506-1.364-.504-1.863-.004a1.434 1.434 0 0 0-.294.421l-4.922 12.304c-.07.178-.106.354-.106.523 0 .367.13.693.376.942.248.253.575.387.945.387.342 0 .826-.127 1.188-.734l4.949-12.353a1.34 1.34 0 0 0 .114-.552c0-.357-.134-.68-.387-.933z"/></svg>
