<svg xmlns="http://www.w3.org/2000/svg" viewBox="0 0 256 256" height="256" width="256"><defs><clipPath id="a"><path d="M665.6 1920h588.8c537.6 0 665.6-128 665.6-665.6V665.6C1920 128 1792 0 1254.4 0H665.6C128 0 0 128 0 665.6v588.8C0 1792 128 1920 665.6 1920z" clip-rule="evenodd"/></clipPath></defs><path d="M88.7 0h78.6C239 0 256 17 256 88.7v78.6c0 71.6-17 88.7-88.7 88.7H88.7C17 256 0 239 0 167.3V88.7C0 17 17 0 88.7 0" fill="#537ebc" fill-rule="evenodd"/><g clip-path="url(#a)" transform="matrix(.13333 0 0 -.13333 0 256)"><path d="M-50-50h2020v2020H-50V-50" fill="#537ebc"/></g><path d="M209.7 88.2c1-4 0-7-5.7-7h-18.7c-4.7 0-7 2.6-8 5.4 0 0-9.6 23.2-23 38.2-4.4 4.3-6.3 5.7-8.7 5.7-1.2 0-3-1.4-3-5.3v-37c0-4.7-1.3-7-5.3-7H108c-3 0-4.7 2.3-4.7 4.4 0 4.5 6.7 5.6 7.4 18.2v27.5c0 6-1 7-3.5 7-6.3 0-21.7-23-30.8-49.7-1.8-5.2-3.6-7.3-8.4-7.3H49.4c-5.4 0-6.4 2.5-6.4 5.3 0 5 6.3 29.5 29.4 62 15.4 22 37.2 34 57 34 11.8 0 13.3-2.6 13.3-7.2v-16.7c0-5.4 1-6.4 5-6.4 2.6 0 7.4 1.4 18.5 12 12.6 12.7 14.7 18.4 21.8 18.4h18.7c5.3 0 8-2.7 6.4-8-1.5-5.2-7.6-12.8-15.6-21.8-4.4-5.3-11-10.8-13-13.6-2.6-3.5-1.8-5 0-8.3 0 0 23-32 25.3-42.8" fill="#fff" fill-rule="evenodd"/></svg>